<?xml version="1.0" encoding="UTF-8"?>
<svg version="1.1" xmlns="http://www.w3.org/2000/svg" width="275" height="250">
<path d="M0 0 C3.14595398 1.57297699 3.61874493 4.66836929 4.75 7.8125 C5.11931641 8.75706055 5.11931641 8.75706055 5.49609375 9.72070312 C6.4413268 12.32419185 7.16304525 14.32616455 6.5 17.06640625 C4.26816835 19.94337674 1.82435534 22.55820185 -0.75 25.125 C-1.60911987 25.98170288 -1.60911987 25.98170288 -2.4855957 26.85571289 C-8.48283869 32.68697601 -15.02576568 37.41454534 -22 42 C-23.25876953 42.86044922 -23.25876953 42.86044922 -24.54296875 43.73828125 C-43.04998587 55.73529235 -66.28046989 59.75289017 -87.8125 55.75 C-93.48211647 54.48203466 -98.95161253 52.84101396 -104.4140625 50.8671875 C-120.11230462 45.60282232 -137.03738753 48.86275844 -151.609375 55.69140625 C-163.43415772 61.98481838 -178.8605927 72.7211854 -185 85 C-185.99 84.67 -186.98 84.34 -188 84 C-189.203125 81.234375 -189.203125 81.234375 -190.25 77.75 C-190.60578125 76.61046875 -190.9615625 75.4709375 -191.328125 74.296875 C-192.01985209 70.90258626 -192.2138111 69.21764581 -191 66 C-177.04289832 48.66016566 -155.13740707 34.90856443 -133 32 C-116.61278979 30.88641853 -102.43147121 33.59898508 -87 39 C-68.74418252 43.77970494 -49.92960388 38.5330945 -34.0546875 29.4609375 C-20.90191801 21.6258998 -10.56923022 10.94078239 0 0 Z " fill="#353433" transform="translate(229,81)"/>
<path d="M0 0 C0.66 0 1.32 0 2 0 C1.97712857 3.56390672 1.8997265 7.12463316 1.8125 10.6875 C1.80379883 12.19860352 1.80379883 12.19860352 1.79492188 13.74023438 C1.57182514 21.25115768 1.57182514 21.25115768 -1.24609375 24.94140625 C-2.60927734 25.96041016 -2.60927734 25.96041016 -4 27 C-4.78117188 27.70640625 -5.56234375 28.4128125 -6.3671875 29.140625 C-26.49709157 46.07232001 -50.86165828 57.16070198 -77.58203125 55.8203125 C-86.9417332 54.82654133 -95.63081167 52.19691192 -104.56640625 49.33984375 C-120.48957031 44.3588456 -136.50309383 47.2202739 -151.3125 54.1875 C-161.36829657 59.53608428 -170.97257329 67.23897787 -177.8125 76.4375 C-178.204375 76.953125 -178.59625 77.46875 -179 78 C-179.66 78 -180.32 78 -181 78 C-182.76171875 75.734375 -182.76171875 75.734375 -184.6875 72.75 C-185.33074219 71.77546875 -185.97398437 70.8009375 -186.63671875 69.796875 C-188 67 -188 67 -187.94140625 64.9296875 C-180.77763382 50.24544029 -161.1987947 39.15886348 -146.37109375 33.65234375 C-125.88636201 27.15036405 -107.02760088 30.06049423 -86.85888672 36.28588867 C-69.18932159 41.70986756 -52.09143126 38.20934465 -35.8828125 30.01220703 C-23.11771368 23.14964224 -10.23388707 12.73987742 -1.234375 1.328125 C-0.82703125 0.88984375 -0.4196875 0.4515625 0 0 Z " fill="#353332" transform="translate(238,115)"/>
<path d="M0 0 C0.66 0 1.32 0 2 0 C3.4631783 1.97440927 4.80713064 3.93238871 6.125 6 C6.49753906 6.57234375 6.87007812 7.1446875 7.25390625 7.734375 C8.17550408 9.15221782 9.08855821 10.57560725 10 12 C-5.27584326 30.89380614 -27.33738889 43.89856009 -51 49 C-51.78503906 49.19078125 -52.57007813 49.3815625 -53.37890625 49.578125 C-67.53256643 51.85621039 -81.83405342 49.66073016 -95.2109375 44.84375 C-111.03788278 39.14767715 -128.17631375 40.68691165 -143.35546875 47.5078125 C-157.18802978 54.4808503 -168.24908678 65.11607452 -178 77 C-178.33 77 -178.66 77 -179 77 C-179.02720824 74.31243045 -179.0469388 71.62514202 -179.0625 68.9375 C-179.07087891 68.18533203 -179.07925781 67.43316406 -179.08789062 66.65820312 C-179.13968087 54.69465591 -179.13968087 54.69465591 -176.65234375 50.99609375 C-174.78837824 49.30196564 -172.92781233 47.62163037 -171 46 C-170.44570312 45.51917969 -169.89140625 45.03835937 -169.3203125 44.54296875 C-152.91245362 31.30729592 -132.19561354 23.36956819 -111 25 C-101.15317785 26.31290962 -91.8402637 28.78441607 -82.42578125 31.9140625 C-65.5038561 37.27813912 -47.81980728 33.86809294 -32.375 25.875 C-22.06708072 20.29494856 -13.17117129 13.39201375 -5 5 C-4.34 5 -3.68 5 -3 5 C-2.690625 4.360625 -2.38125 3.72125 -2.0625 3.0625 C-1 1 -1 1 0 0 Z " fill="#363533" transform="translate(214,57)"/>
<path d="M0 0 C3.99462446 2.36045991 7.55060888 5.25889122 10.75 8.625 C10.75 9.285 10.75 9.945 10.75 10.625 C-6.78464569 27.77444671 -31.0870345 38.32462221 -55.5 38.9375 C-66.64066213 38.75579705 -76.92541221 36.49013942 -87.4375 33 C-101.74142179 28.30179567 -116.23059362 28.53716799 -130.09765625 34.6953125 C-132.25 35.625 -132.25 35.625 -135.625 36.5 C-141.14611242 38.21344868 -146.13647647 40.95488427 -151.25 43.625 C-148.98815947 37.24853467 -145.07936094 31.80079629 -141.31933594 26.23242188 C-140.46169281 24.94321586 -139.64887286 23.62424084 -138.8515625 22.296875 C-135.26803527 17.04712173 -129.84846541 15.51765009 -123.83203125 14.2890625 C-106.81576346 11.4876268 -90.99442977 13.88830655 -74.86474609 19.44702148 C-68.6496579 21.49369117 -63.03024716 22.13586707 -56.5 22.0625 C-55.53771484 22.05420166 -54.57542969 22.04590332 -53.58398438 22.03735352 C-34.53687069 21.58864133 -18.63621651 12.68600619 -4.0859375 0.8671875 C-2.25 -0.375 -2.25 -0.375 0 0 Z " fill="#363433" transform="translate(194.25,37.375)"/>
<path d="M0 0 C-2.0559552 3.21257081 -4.12092831 6.41925018 -6.1875 9.625 C-6.76564453 10.52863281 -7.34378906 11.43226563 -7.93945312 12.36328125 C-15.45937746 24.00429406 -21.31661681 28.93172291 -35.2421875 31.9765625 C-52.74374496 35.47139497 -67.99431935 33.52932722 -84.93334961 28.12060547 C-102.3288162 22.61097863 -119.76322468 24.63423765 -136 33 C-141.70714044 36.52452299 -146.94085898 40.60653543 -152 45 C-156.98012761 43.49087042 -160.24259942 40.44338151 -164 37 C-163.48830343 32.0422288 -159.83827409 29.89693358 -156.19238281 26.93286133 C-138.73221898 13.12580002 -119.10836409 7.66891809 -97 9 C-88.61815237 10.11582248 -80.58791773 12.6048358 -72.59130859 15.28588867 C-56.66519817 20.55161498 -39.67657105 18.38089366 -24.71459961 11.21069336 C-18.06602909 7.85477874 -11.65538101 4.12346085 -5.35546875 0.15234375 C-3 -1 -3 -1 0 0 Z " fill="#343231" transform="translate(232,167)"/>
<path d="M0 0 C1.81129047 0.60778322 3.62359006 1.21257971 5.4375 1.8125 C6.613125 2.204375 7.78875 2.59625 9 3 C5.87302453 6.12697547 1.90606831 7.15279633 -2.1875 8.6875 C-3.44530273 9.18733398 -3.44530273 9.18733398 -4.72851562 9.69726562 C-11.87096055 12.37916727 -16.83250061 11.79160044 -24.0625 9.5 C-35.93753998 6.20228028 -48.42827352 6.07203402 -60.15625 10.078125 C-68.39140365 12.74776272 -77.34507509 7.91360204 -85 5 C-79.79618966 -2.80571552 -65.35784626 -5.92231955 -56.49975586 -7.91577148 C-36.5876896 -11.84658852 -18.68442893 -6.55593998 0 0 Z " fill="#383634" transform="translate(177,216)"/>
<path d="M0 0 C0 0.99 0 1.98 0 3 C-32.56497282 19.06798659 -57.88927847 18.25411276 -92 8 C-92 7.34 -92 6.68 -92 6 C-89.46195542 4.84552129 -86.92006371 3.70131573 -84.375 2.5625 C-83.66214844 2.23701172 -82.94929688 1.91152344 -82.21484375 1.57617188 C-76.34372837 -1.03620515 -71.59701914 -2.89971786 -65.3125 -0.5625 C-52.1665416 3.32927759 -35.50902406 2.23158998 -23.1875 -3.75 C-15.50025603 -6.76460548 -7.35005225 -2.63376872 0 0 Z " fill="#393836" transform="translate(178,28)"/>
<path d="M0 0 C0.33 0.66 0.66 1.32 1 2 C2.11375 2.12375 3.2275 2.2475 4.375 2.375 C8 3 8 3 9.75 4.9375 C10.1625 5.618125 10.575 6.29875 11 7 C11.99 7.66 12.98 8.32 14 9 C10.5892431 10.53136024 7.44007682 11.88782356 3.8125 12.8125 C-1.77838133 14.55392205 -6.82007716 17.2952127 -12 20 C-10.41956214 15.47459324 -8.04961363 11.7280056 -5.4375 7.75 C-5.02564453 7.11320312 -4.61378906 6.47640625 -4.18945312 5.8203125 C-1.16071429 1.16071429 -1.16071429 1.16071429 0 0 Z " fill="#383634" transform="translate(55,61)"/>
<path d="M0 0 C1 3 1 3 0 5.875 C-1.06458216 9.20181924 -0.84909116 10.69797881 0 14 C-0.33 14.33 -0.66 14.66 -1 15 C1.64 14.67 4.28 14.34 7 14 C7.33 13.01 7.66 12.02 8 11 C8.33 11.99 8.66 12.98 9 14 C8.36191406 14.69867188 7.72382812 15.39734375 7.06640625 16.1171875 C6.24011719 17.02726562 5.41382813 17.93734375 4.5625 18.875 C3.32693359 20.23238281 3.32693359 20.23238281 2.06640625 21.6171875 C-0.00907942 23.81137927 -0.00907942 23.81137927 -1 26 C-1.99 25.67 -2.98 25.34 -4 25 C-5.203125 22.234375 -5.203125 22.234375 -6.25 18.75 C-6.78367188 17.04070312 -6.78367188 17.04070312 -7.328125 15.296875 C-8.00895084 11.95607846 -8.14358655 10.18378792 -7 7 C-5.37109375 4.98046875 -5.37109375 4.98046875 -3.4375 3.1875 C-2.79683594 2.58292969 -2.15617187 1.97835937 -1.49609375 1.35546875 C-1.00238281 0.90816406 -0.50867187 0.46085938 0 0 Z " fill="#3E3C3A" transform="translate(45,140)"/>
<path d="M0 0 C1.9375 0.625 1.9375 0.625 4 2 C5.40540541 7.18918919 5.40540541 7.18918919 4 10 C3.34 10 2.68 10 2 10 C1.06576355 13.01031744 0.95550089 13.86650268 2 17 C-0.97 17.66 -3.94 18.32 -7 19 C-7 18.34 -7 17.68 -7 17 C-6.34 17 -5.68 17 -5 17 C-5.391875 16.175 -5.78375 15.35 -6.1875 14.5 C-7.25445922 9.90386797 -6.29831994 7.05112426 -4 3 C-1.8125 1 -1.8125 1 0 0 Z " fill="#272728" transform="translate(50,137)"/>
<path d="M0 0 C5.445 1.485 5.445 1.485 11 3 C11 3.99 11 4.98 11 6 C9.04669132 7.03041513 7.08718472 8.0490893 5.125 9.0625 C4.03445312 9.63097656 2.94390625 10.19945312 1.8203125 10.78515625 C0.88960937 11.18605469 -0.04109375 11.58695313 -1 12 C-1.66 11.67 -2.32 11.34 -3 11 C-3 10.34 -3 9.68 -3 9 C-2.34 9 -1.68 9 -1 9 C-0.67 6.03 -0.34 3.06 0 0 Z " fill="#57514C" transform="translate(167,25)"/>
<path d="M0 0 C0.33 0 0.66 0 1 0 C1.33 1.98 1.66 3.96 2 6 C2.763125 5.690625 3.52625 5.38125 4.3125 5.0625 C6.18789677 4.32106407 8.08684652 3.63771783 10 3 C10 7.95065332 8.86521564 8.72572933 5.5625 12.25 C4.73878906 13.14203125 3.91507813 14.0340625 3.06640625 14.953125 C1 17 1 17 0 17 C0 11.39 0 5.78 0 0 Z " fill="#55504B" transform="translate(35,117)"/>
<path d="M0 0 C-0.33 7.26 -0.66 14.52 -1 22 C-1.33 22 -1.66 22 -2 22 C-2.33 18.37 -2.66 14.74 -3 11 C-6.11227195 11 -8.94152152 11.45627049 -12 12 C-3.26213592 0 -3.26213592 0 0 0 Z " fill="#504B48" transform="translate(240,115)"/>
<path d="M0 0 C0.33 0.99 0.66 1.98 1 3 C0.67 3.66 0.34 4.32 0 5 C0.66 5 1.32 5 2 5 C2.33 6.65 2.66 8.3 3 10 C-0.96 11.98 -4.92 13.96 -9 16 C-7.36768634 11.91921584 -5.7416683 8.82515683 -3.375 5.1875 C-2.74335937 4.21167969 -2.11171875 3.23585938 -1.4609375 2.23046875 C-0.73777344 1.12638672 -0.73777344 1.12638672 0 0 Z " fill="#4F4B47" transform="translate(52,65)"/>
<path d="M0 0 C0.66 0 1.32 0 2 0 C3.4631783 1.97440927 4.80713064 3.93238871 6.125 6 C6.68380859 6.85851563 6.68380859 6.85851563 7.25390625 7.734375 C8.17550408 9.15221782 9.08855821 10.57560725 10 12 C8.35 13.98 6.7 15.96 5 18 C4.31292445 15.50935112 4 13.62113708 4 11 C3.67 11 3.34 11 3 11 C3 9.02 3 7.04 3 5 C2.01 5.33 1.02 5.66 0 6 C-0.99 5.67 -1.98 5.34 -3 5 C-1.125 1.125 -1.125 1.125 0 0 Z " fill="#615C56" transform="translate(214,57)"/>
<path d="M0 0 C0.66 0.33 1.32 0.66 2 1 C1.67 1.99 1.34 2.98 1 4 C2.32 5.32 3.64 6.64 5 8 C-0.21979128 8.1799928 -4.07262981 7.97094808 -9 6 C-9 5.34 -9 4.68 -9 4 C-7.54618103 3.30300448 -6.08677047 2.61766134 -4.625 1.9375 C-3.40683594 1.36322266 -3.40683594 1.36322266 -2.1640625 0.77734375 C-1.44992188 0.52082031 -0.73578125 0.26429687 0 0 Z M5 6 C8 7 8 7 8 7 Z " fill="#3C3935" transform="translate(95,30)"/>
<path d="M0 0 C0 0.99 0 1.98 0 3 C-0.66 3 -1.32 3 -2 3 C-2 3.66 -2 4.32 -2 5 C-1.01 5.33 -0.02 5.66 1 6 C-1 8 -1 8 -3 9 C-4.9453125 8.44140625 -4.9453125 8.44140625 -7.125 7.5625 C-7.84945312 7.27503906 -8.57390625 6.98757812 -9.3203125 6.69140625 C-9.87460938 6.46324219 -10.42890625 6.23507813 -11 6 C-8.45731621 2.18597432 -4.72779558 0 0 0 Z " fill="#474442" transform="translate(103,215)"/>
<path d="M0 0 C1 3 1 3 -0.25 6.5625 C-2 10 -2 10 -5 12 C-6.19232613 14.05003955 -6.19232613 14.05003955 -7 16 C-8.40932642 11.06735751 -8.40932642 11.06735751 -8 8 C-5.69632042 4.89344349 -2.97911791 2.45109045 0 0 Z " fill="#4B4743" transform="translate(45,140)"/>
<path d="M0 0 C0.66 0.33 1.32 0.66 2 1 C2 1.66 2 2.32 2 3 C3.65 2.67 5.3 2.34 7 2 C6.21654285 3.17219543 5.42297164 4.33763668 4.625 5.5 C4.18414062 6.1496875 3.74328125 6.799375 3.2890625 7.46875 C2.65097656 8.22671875 2.65097656 8.22671875 2 9 C1.34 9 0.68 9 0 9 C-3 4.61538462 -3 4.61538462 -3 2 C-2.01 2 -1.02 2 0 2 C0 1.34 0 0.68 0 0 Z " fill="#534E4A" transform="translate(57,184)"/>
<path d="M0 0 C0.99 0.33 1.98 0.66 3 1 C0.03 5.455 0.03 5.455 -3 10 C-3.33 9.01 -3.66 8.02 -4 7 C-5.98 7 -7.96 7 -10 7 C-6.81516089 4.36113331 -3.7101179 1.85505895 0 0 Z " fill="#726A62" transform="translate(229,166)"/>
<path d="M0 0 C0.66 0.33 1.32 0.66 2 1 C1.67 1.99 1.34 2.98 1 4 C1.33 4.66 1.66 5.32 2 6 C1.67 6.66 1.34 7.32 1 8 C-1.1875 8.5625 -1.1875 8.5625 -4 9 C-5.093125 9.185625 -6.18625 9.37125 -7.3125 9.5625 C-8.199375 9.706875 -9.08625 9.85125 -10 10 C-6.66666667 6.66666667 -3.33333333 3.33333333 0 0 Z " fill="#5D5854" transform="translate(226,127)"/>
<path d="M0 0 C0.33 0.99 0.66 1.98 1 3 C2.49985609 4.66710346 2.49985609 4.66710346 4 6 C2.68 7.32 1.36 8.64 0 10 C-0.99 9.67 -1.98 9.34 -3 9 C-2.67 7.68 -2.34 6.36 -2 5 C-2.66 5 -3.32 5 -4 5 C-3.6875 3.0625 -3.6875 3.0625 -3 1 C-2.01 0.67 -1.02 0.34 0 0 Z " fill="#413E3C" transform="translate(213,71)"/>
<path d="M0 0 C0.36923077 4.55384615 0.36923077 4.55384615 -1.5 6.8125 C-1.995 7.204375 -2.49 7.59625 -3 8 C-3.66 6.35 -4.32 4.7 -5 3 C-6.98 3 -8.96 3 -11 3 C-8.21756596 -1.17365106 -4.53441502 -0.22300402 0 0 Z " fill="#433F3B" transform="translate(225,173)"/>
<path d="M0 0 C0.66 0.99 1.32 1.98 2 3 C1.67 3.66 1.34 4.32 1 5 C0.01 4.67 -0.98 4.34 -2 4 C-5.11785113 4.64644661 -5.11785113 4.64644661 -6 7 C-6.99 6.01 -7.98 5.02 -9 4 C-7.02579865 1.47740939 -6.03254358 1.0070192 -2.8125 0.3125 C-1.4203125 0.1578125 -1.4203125 0.1578125 0 0 Z " fill="#272727" transform="translate(220,175)"/>
<path d="M0 0 C-1.95519384 1.17192047 -3.9142539 2.3373929 -5.875 3.5 C-6.96554688 4.1496875 -8.05609375 4.799375 -9.1796875 5.46875 C-12 7 -12 7 -14 7 C-14 6.34 -14 5.68 -14 5 C-13.01 5 -12.02 5 -11 5 C-10.95875 4.38125 -10.9175 3.7625 -10.875 3.125 C-10 1 -10 1 -7.1875 -0.3125 C-4.08008079 -0.98272767 -2.91938434 -0.88024821 0 0 Z " fill="#655E5A" transform="translate(218,154)"/>
<path d="M0 0 C1.7074998 1.28062485 3.37373596 2.61767557 5 4 C5 4.66 5 5.32 5 6 C3.46875 7.2890625 3.46875 7.2890625 1.5 8.625 C0.8503125 9.07101563 0.200625 9.51703125 -0.46875 9.9765625 C-0.9740625 10.31429687 -1.479375 10.65203125 -2 11 C-1.40049704 7.31733897 -0.75241109 3.65456815 0 0 Z " fill="#66605A" transform="translate(200,42)"/>
<path d="M0 0 C1.485 0.99 1.485 0.99 3 2 C2.01 2 1.02 2 0 2 C0 1.34 0 0.68 0 0 Z M-4 1 C-2.68 1.66 -1.36 2.32 0 3 C0 3.66 0 4.32 0 5 C-0.66 5 -1.32 5 -2 5 C-2.33 5.99 -2.66 6.98 -3 8 C-4.32 8 -5.64 8 -7 8 C-7 7.34 -7 6.68 -7 6 C-6.34 6 -5.68 6 -5 6 C-4.67 4.35 -4.34 2.7 -4 1 Z " fill="#252627" transform="translate(227,133)"/>
<path d="M0 0 C-0.66 1.98 -1.32 3.96 -2 6 C-5 6 -5 6 -6.6875 4.5 C-7.120625 4.005 -7.55375 3.51 -8 3 C-6 0 -6 0 -4 -0.75 C-2 -1 -2 -1 0 0 Z " fill="#282726" transform="translate(103,30)"/>
<path d="M0 0 C0.556875 0.268125 1.11375 0.53625 1.6875 0.8125 C-1.12054268 3.77654505 -3.49565774 6.25749019 -7.3125 7.8125 C-7.3125 4.8125 -7.3125 4.8125 -5.0625 2.0625 C-2.3125 -0.1875 -2.3125 -0.1875 0 0 Z " fill="#514B47" transform="translate(89.3125,201.1875)"/>
<path d="M0 0 C1.32 0.99 2.64 1.98 4 3 C0.25 6 0.25 6 -2 6 C-2.33 6.66 -2.66 7.32 -3 8 C-3.66 7.34 -4.32 6.68 -5 6 C-3.63016497 2.83884224 -3.0109362 2.0072908 0 0 Z " fill="#262726" transform="translate(231,125)"/>
<path d="M0 0 C0.66 0.33 1.32 0.66 2 1 C2 1.99 2 2.98 2 4 C1.13375 4.0928125 1.13375 4.0928125 0.25 4.1875 C-2.25280694 4.86989878 -2.25280694 4.86989878 -4 7.5 C-6.16065535 10.20081918 -6.77622951 10.40897541 -10 11 C-6.79239749 7.19364503 -3.59253891 3.45436433 0 0 Z " fill="#837B74" transform="translate(229,81)"/>
<path d="M0 0 C0.66 0.33 1.32 0.66 2 1 C-0.88406243 4.40843742 -2.3708265 5.86591384 -6.8125 6.8125 C-8.3903125 6.9053125 -8.3903125 6.9053125 -10 7 C-7.20283196 3.70921407 -3.80471422 1.93694542 0 0 Z " fill="#6B6660" transform="translate(93,183)"/>
<path d="M0 0 C0 0.66 0 1.32 0 2 C-0.99 2 -1.98 2 -3 2 C-3.66 3.32 -4.32 4.64 -5 6 C-5.99 6 -6.98 6 -8 6 C-8.66 5.34 -9.32 4.68 -10 4 C-8.71086513 3.32845067 -7.41859796 2.66291141 -6.125 2 C-5.40570313 1.62875 -4.68640625 1.2575 -3.9453125 0.875 C-2 0 -2 0 0 0 Z M-9 7 C-7 8 -7 8 -7 8 Z " fill="#66615D" transform="translate(196,111)"/>
<path d="M0 0 C2.475 0.99 2.475 0.99 5 2 C4.67 2.99 4.34 3.98 4 5 C2.02 5.33 0.04 5.66 -2 6 C-1.125 1.125 -1.125 1.125 0 0 Z " fill="#282725" transform="translate(177,49)"/>
<path d="M0 0 C0.66 0.33 1.32 0.66 2 1 C1.67 1.66 1.34 2.32 1 3 C1.66 3.33 2.32 3.66 3 4 C3 4.66 3 5.32 3 6 C0.36 5.34 -2.28 4.68 -5 4 C-5 3.34 -5 2.68 -5 2 C-2.625 0.9375 -2.625 0.9375 0 0 Z " fill="#716961" transform="translate(91,32)"/>
<path d="M0 0 C0.66 0.33 1.32 0.66 2 1 C1.34 1.66 0.68 2.32 0 3 C-0.64767793 5.57061311 -0.64767793 5.57061311 -1 8 C-1.5775 7.79375 -2.155 7.5875 -2.75 7.375 C-5.51967567 6.91338739 -6.64561267 7.57055055 -9 9 C-6 6 -3 3 0 0 Z " fill="#726C66" transform="translate(55,131)"/>
<path d="M0 0 C0.66 1.32 1.32 2.64 2 4 C0.71086513 4.67154933 -0.58140204 5.33708859 -1.875 6 C-2.59429687 6.37125 -3.31359375 6.7425 -4.0546875 7.125 C-6 8 -6 8 -8 8 C-8 7.34 -8 6.68 -8 6 C-6.68 6 -5.36 6 -4 6 C-4 5.01 -4 4.02 -4 3 C-2 1.3125 -2 1.3125 0 0 Z " fill="#5B544F" transform="translate(200,122)"/>
<path d="M0 0 C2.64 0 5.28 0 8 0 C8.33 0.66 8.66 1.32 9 2 C6.04335481 3.4783226 3.25770263 3.06032783 0 3 C0 2.01 0 1.02 0 0 Z " fill="#4A433E" transform="translate(177,218)"/>
<path d="M0 0 C0.33 0.99 0.66 1.98 1 3 C-1.31 4.98 -3.62 6.96 -6 9 C-6 7.35 -6 5.7 -6 4 C-4.35 3.67 -2.7 3.34 -1 3 C-0.67 2.01 -0.34 1.02 0 0 Z " fill="#5D5852" transform="translate(53,151)"/>
<path d="M0 0 C0 3.74161103 -0.51338171 7.28953557 -1 11 C-2.55136786 8.53606281 -3.03039129 7.31910854 -2.75 4.375 C-2 2 -2 2 0 0 Z M1 3 C1.66 3 2.32 3 3 3 C3 3.66 3 4.32 3 5 C2.01 4.67 1.02 4.34 0 4 C0.33 3.67 0.66 3.34 1 3 Z " fill="#746E6A" transform="translate(40,145)"/>
<path d="M0 0 C-1 3 -1 3 -2.8125 4.0625 C-3.8953125 4.5265625 -3.8953125 4.5265625 -5 5 C-5.7425 5.37125 -6.485 5.7425 -7.25 6.125 C-7.8275 6.41375 -8.405 6.7025 -9 7 C-9.66 6.34 -10.32 5.68 -11 5 C-9.54462432 4.16151196 -8.08559627 3.32936066 -6.625 2.5 C-5.81289062 2.0359375 -5.00078125 1.571875 -4.1640625 1.09375 C-2 0 -2 0 0 0 Z " fill="#6C655F" transform="translate(209,142)"/>
<path d="M0 0 C1.32 1.32 2.64 2.64 4 4 C1.21176345 5.0326802 0.1322726 5.04509293 -2.75 4.0625 C-3.4925 3.711875 -4.235 3.36125 -5 3 C-4.360625 2.690625 -3.72125 2.38125 -3.0625 2.0625 C-1.06389179 1.1654837 -1.06389179 1.1654837 0 0 Z " fill="#5A534C" transform="translate(134,130)"/>
<path d="M0 0 C0.66 0.33 1.32 0.66 2 1 C1.01 2.98 0.02 4.96 -1 7 C-2.98 7 -4.96 7 -7 7 C-4.66666667 4.66666667 -2.33333333 2.33333333 0 0 Z " fill="#716C67" transform="translate(49,98)"/>
<path d="M0 0 C0.66 0.33 1.32 0.66 2 1 C1.67 2.32 1.34 3.64 1 5 C-1.97 4.505 -1.97 4.505 -5 4 C-3 1 -3 1 0 0 Z " fill="#7B736E" transform="translate(97,217)"/>
<path d="M0 0 C-0.33 0.99 -0.66 1.98 -1 3 C-4.80269732 4.6900877 -7.05272168 5.19873962 -11 4 C-9.5437455 3.32880451 -8.08492133 2.66318193 -6.625 2 C-5.81289062 1.62875 -5.00078125 1.2575 -4.1640625 0.875 C-2 0 -2 0 0 0 Z " fill="#6C6661" transform="translate(214,176)"/>
<path d="M0 0 C1.60495567 0.11442461 3.20898119 0.24194694 4.8125 0.375 C5.70582031 0.44460937 6.59914062 0.51421875 7.51953125 0.5859375 C10 1 10 1 13 3 C11.39592672 3.02708567 9.7917215 3.04643483 8.1875 3.0625 C6.84751953 3.07990234 6.84751953 3.07990234 5.48046875 3.09765625 C3 3 3 3 0 2 C0 1.34 0 0.68 0 0 Z " fill="#6E6961" transform="translate(127,146)"/>
<path d="M0 0 C0 0.99 0 1.98 0 3 C-3 5.1875 -3 5.1875 -6 7 C-6.66 6.67 -7.32 6.34 -8 6 C-7.0479279 4.99403703 -6.08812654 3.99538437 -5.125 3 C-4.59132812 2.443125 -4.05765625 1.88625 -3.5078125 1.3125 C-2 0 -2 0 0 0 Z " fill="#9D958F" transform="translate(240,115)"/>
<path d="M0 0 C1.32 0.33 2.64 0.66 4 1 C1.75 3.0625 1.75 3.0625 -1 5 C-3.3125 4.75 -3.3125 4.75 -5 4 C-5 3.34 -5 2.68 -5 2 C-3.35 1.67 -1.7 1.34 0 1 C0 0.67 0 0.34 0 0 Z " fill="#5C5651" transform="translate(214,114)"/>
<path d="M0 0 C1.32 0.33 2.64 0.66 4 1 C1.75 3.0625 1.75 3.0625 -1 5 C-3.3125 4.75 -3.3125 4.75 -5 4 C-5 3.34 -5 2.68 -5 2 C-3.35 1.67 -1.7 1.34 0 1 C0 0.67 0 0.34 0 0 Z " fill="#5C5752" transform="translate(206,82)"/>
<path d="M0 0 C2.97 0.495 2.97 0.495 6 1 C3.3144406 3.6855594 0.62378672 4.06049974 -3 5 C-2.01 3.35 -1.02 1.7 0 0 Z " fill="#68625B" transform="translate(169,66)"/>
<path d="M0 0 C0.66 0.33 1.32 0.66 2 1 C0.68 3.31 -0.64 5.62 -2 8 C-2.66 7.67 -3.32 7.34 -4 7 C-3.43628586 3.73045798 -2.50037734 2.17424117 0 0 Z " fill="#7E7872" transform="translate(72,197)"/>
<path d="M0 0 C0.598125 0.20625 1.19625 0.4125 1.8125 0.625 C-2.9375 4.625 -2.9375 4.625 -5.1875 4.625 C-5.1875 3.635 -5.1875 2.645 -5.1875 1.625 C-2.1875 -0.375 -2.1875 -0.375 0 0 Z " fill="#655E5A" transform="translate(215.1875,189.375)"/>
<path d="M0 0 C-0.33 1.32 -0.66 2.64 -1 4 C-1.33 3.67 -1.66 3.34 -2 3 C-3.99958364 2.95919217 -6.00045254 2.95745644 -8 3 C-5.53387212 -0.1151089 -3.89156016 -0.31553191 0 0 Z " fill="#514B45" transform="translate(222,173)"/>
<path d="M0 0 C0.99 0.33 1.98 0.66 3 1 C2.67 1.66 2.34 2.32 2 3 C1.34 3 0.68 3 0 3 C-0.33 3.66 -0.66 4.32 -1 5 C-1.99 4.67 -2.98 4.34 -4 4 C-4 3.01 -4 2.02 -4 1 C-2.68 1.33 -1.36 1.66 0 2 C0 1.34 0 0.68 0 0 Z " fill="#262623" transform="translate(84,154)"/>
<path d="M0 0 C0.33 0.66 0.66 1.32 1 2 C-1.25 3.1875 -1.25 3.1875 -4 4 C-6.3125 2.625 -6.3125 2.625 -8 1 C-5.07175348 0.02391783 -3.04386724 -0.08226668 0 0 Z " fill="#282522" transform="translate(95,115)"/>
<path d="M0 0 C1.65 0.33 3.3 0.66 5 1 C0.25 5 0.25 5 -2 5 C-1.34 3.35 -0.68 1.7 0 0 Z " fill="#615B55" transform="translate(93,197)"/>
<path d="M0 0 C1.32 0.66 2.64 1.32 4 2 C2.35 2.66 0.7 3.32 -1 4 C-1 4.99 -1 5.98 -1 7 C-1.66 7 -2.32 7 -3 7 C-2.38722388 4.03824877 -1.74627478 2.61941217 0 0 Z " fill="#282624" transform="translate(211,187)"/>
<path d="M0 0 C3.3 0 6.6 0 10 0 C9.67 0.99 9.34 1.98 9 3 C8.34 2.67 7.68 2.34 7 2 C6.67 2.66 6.34 3.32 6 4 C5.67 3.34 5.34 2.68 5 2 C2.47266765 1.34444881 2.47266765 1.34444881 0 1 C0 0.67 0 0.34 0 0 Z " fill="#2A2522" transform="translate(106,114)"/>
<path d="M0 0 C0.33 0.99 0.66 1.98 1 3 C1.99 3.33 2.98 3.66 4 4 C0.535 5.485 0.535 5.485 -3 7 C-1.125 2.25 -1.125 2.25 0 0 Z " fill="#857A72" transform="translate(46,74)"/>
<path d="M0 0 C0.99 0.33 1.98 0.66 3 1 C4.66621616 1.03874921 6.33394172 1.0450286 8 1 C4.81237635 3.12508244 2.73487777 3.5020163 -1 4 C-0.67 2.68 -0.34 1.36 0 0 Z " fill="#615D58" transform="translate(202,193)"/>
<path d="M0 0 C0.66 0.33 1.32 0.66 2 1 C1.67 1.66 1.34 2.32 1 3 C0.34 3 -0.32 3 -1 3 C-1 3.99 -1 4.98 -1 6 C-2.32 5.67 -3.64 5.34 -5 5 C-3.35 3.35 -1.7 1.7 0 0 Z " fill="#2D2925" transform="translate(209,64)"/>
<path d="M0 0 C0.66 0.33 1.32 0.66 2 1 C0.625 2.5 0.625 2.5 -1 4 C-1.66 4 -2.32 4 -3 4 C-3.33 4.99 -3.66 5.98 -4 7 C-4.99 6.34 -5.98 5.68 -7 5 C-4.69 3.35 -2.38 1.7 0 0 Z " fill="#7A756F" transform="translate(184,43)"/>
</svg>
